<svg xmlns="http://www.w3.org/2000/svg" width="37" height="34" viewBox="0 0 37 34"><g transform="translate(-145 -264)"><path d="M12.024,32C5.348,32-.063,36.45-.063,41.943a8.842,8.842,0,0,0,2.5,6.037C1.731,49.863-.153,52.3.026,52.722s5.321-1.044,6.7-2.029a21.268,21.268,0,0,0,5.3,1.192c6.676,0,12.088-4.45,12.088-9.943S18.7,32,12.024,32Z" transform="translate(147.066 234.085)" fill="none" stroke="#a49fba" stroke-width="2"/><path d="M14.589,32c8.095,0,14.656,5.8,14.656,12.953a11.974,11.974,0,0,1-3.028,7.865,15.977,15.977,0,0,0,2.656,4.558A1.594,1.594,0,0,1,29.136,59a1.38,1.38,0,0,1-1.265.9,13.19,13.19,0,0,1-7.963-2.883,16.376,16.376,0,0,1-5.318.89c-8.095,0-14.656-5.8-14.656-12.953S6.494,32,14.589,32Z" transform="translate(151.566 237.5)" fill="#8f8f8f" stroke="#fff" stroke-width="1"/><rect width="37" height="34" transform="translate(145 264)" fill="none" opacity="0.5"/><g transform="translate(37 -1.827)"><path d="M8013.354,282.847s1.658-.368,1.865-1.612-.569-3.382-.086-4.1,1.851-.138,2.2,1.036c.2.7-.755,2.1-.157,3.911.949.928,4.832-1.1,5.728-.153.527.808.608,7.728-1.487,8.142s-8.059-.668-8.059-.668Z" transform="translate(-7886.67 0)" fill="#fff" stroke="#fff" stroke-width="1"/><g transform="translate(122 282.48)" fill="#fff" stroke="#fff" stroke-width="1"><rect width="3" height="7" rx="1" stroke="none"/><rect x="0.5" y="0.5" width="2" height="6" rx="0.5" fill="none"/></g></g></g></svg>