<svg xmlns="http://www.w3.org/2000/svg" width="38.138" height="34" viewBox="0 0 38.138 34">
  <g id="그룹_5033" data-name="그룹 5033" transform="translate(-128 -166)">
    <g id="그룹_5031" data-name="그룹 5031">
      <g id="합치기_46" data-name="합치기 46" transform="translate(7430 166)" fill="none">
        <path d="M-7288.411,12.442A6.191,6.191,0,0,1-7292.5,14a6.765,6.765,0,0,1-6.5-7,6.764,6.764,0,0,1,6.5-7,6.325,6.325,0,0,1,5.051,2.595A6.973,6.973,0,0,1-7283,1a6.969,6.969,0,0,1,4.447,1.595A6.326,6.326,0,0,1-7273.5,0a6.763,6.763,0,0,1,6.5,7,6.763,6.763,0,0,1-6.5,7,6.2,6.2,0,0,1-4.09-1.559A6.985,6.985,0,0,1-7283,15,6.987,6.987,0,0,1-7288.411,12.442Z" stroke="none"/>
        <path d="M -7282.99951171875 13.00067615509033 C -7281.498046875 13.00067615509033 -7280.08935546875 12.33419609069824 -7279.134765625 11.17214584350586 L -7277.82666015625 9.580356597900391 L -7276.2744140625 10.93480587005615 C -7275.4755859375 11.63199615478516 -7274.515625 12.00050640106201 -7273.49951171875 12.00050640106201 C -7271.0185546875 12.00050640106201 -7269.00048828125 9.756986618041992 -7269.00048828125 6.999336242675781 C -7269.00048828125 4.24268627166748 -7271.0185546875 1.999996185302734 -7273.49951171875 1.999996185302734 C -7274.8349609375 1.999996185302734 -7276.09423828125 2.655306100845337 -7276.95458984375 3.797896146774292 L -7278.21142578125 5.467136383056641 L -7279.82421875 4.138216018676758 C -7280.7275390625 3.393696069717407 -7281.82568359375 3.000166177749634 -7282.99951171875 3.000166177749634 C -7284.173828125 3.000166177749634 -7285.2724609375 3.393816232681274 -7286.1767578125 4.138556003570557 L -7287.7890625 5.466886043548584 L -7289.0458984375 3.79797625541687 C -7289.90625 2.655336141586304 -7291.1650390625 1.999996185302734 -7292.4990234375 1.999996185302734 C -7294.98095703125 1.999996185302734 -7297 4.24268627166748 -7297 6.999336242675781 C -7297 9.756986618041992 -7294.98095703125 12.00050640106201 -7292.4990234375 12.00050640106201 C -7291.4833984375 12.00050640106201 -7290.52490234375 11.63212585449219 -7289.7265625 10.9351863861084 L -7288.17431640625 9.580366134643555 L -7286.8662109375 11.17195606231689 C -7285.91064453125 12.33413600921631 -7284.50146484375 13.00067615509033 -7282.99951171875 13.00067615509033 M -7282.99951171875 15.00067615509033 C -7285.1796875 15.00067615509033 -7287.126953125 14.00427627563477 -7288.4111328125 12.4419059753418 C -7289.52783203125 13.41667652130127 -7290.9501953125 14.00050640106201 -7292.4990234375 14.00050640106201 C -7296.08935546875 14.00050640106201 -7299 10.866286277771 -7299 6.999336242675781 C -7299 3.134226083755493 -7296.08935546875 -3.829803517874097e-06 -7292.4990234375 -3.829803517874097e-06 C -7290.46044921875 -3.829803517874097e-06 -7288.64013671875 1.012086153030396 -7287.4482421875 2.594866275787354 C -7286.23876953125 1.598556160926819 -7284.68896484375 1.000166177749634 -7282.99951171875 1.000166177749634 C -7281.310546875 1.000166177749634 -7279.76123046875 1.59847617149353 -7278.55224609375 2.594786167144775 C -7277.3603515625 1.012006163597107 -7275.53955078125 -3.829803517874097e-06 -7273.49951171875 -3.829803517874097e-06 C -7269.9091796875 -3.829803517874097e-06 -7267.00048828125 3.134226083755493 -7267.00048828125 6.999336242675781 C -7267.00048828125 10.866286277771 -7269.9091796875 14.00050640106201 -7273.49951171875 14.00050640106201 C -7275.04931640625 14.00050640106201 -7276.47216796875 13.41657638549805 -7277.58935546875 12.44180583953857 C -7278.873046875 14.00417613983154 -7280.8203125 15.00067615509033 -7282.99951171875 15.00067615509033 Z" stroke="none" fill="#e59b1e"/>
      </g>
      <g id="합치기_45" data-name="합치기 45" transform="translate(7427 178.786)" fill="none">
        <path d="M-7291,21.214V17.708h-8V9.535A9.535,9.535,0,0,1-7289.466,0a9.5,9.5,0,0,1,5.688,1.88A10.977,10.977,0,0,1-7280,1.214a10.979,10.979,0,0,1,3.871.7A9.493,9.493,0,0,1-7270.4,0a9.534,9.534,0,0,1,9.535,9.535v8.174H-7269v3.506Z" stroke="none"/>
        <path d="M -7271.00048828125 19.21416091918945 L -7271.00048828125 17.70808219909668 L -7271.00048828125 15.70808124542236 L -7269.00048828125 15.70808124542236 L -7262.86181640625 15.70808124542236 L -7262.86181640625 9.534561157226563 C -7262.86181640625 5.37999153137207 -7266.24169921875 2.000001430511475 -7270.396484375 2.000001430511475 C -7272.04638671875 2.000001430511475 -7273.61279296875 2.522971391677856 -7274.92578125 3.512361526489258 L -7275.80419921875 4.173981189727783 L -7276.8330078125 3.787081480026245 C -7277.84375 3.407141447067261 -7278.90966796875 3.214491367340088 -7280.00048828125 3.214491367340088 C -7281.06396484375 3.214491367340088 -7282.10400390625 3.397611379623413 -7283.09130859375 3.758751392364502 L -7284.10546875 4.129591464996338 L -7284.97216796875 3.485111474990845 C -7286.2783203125 2.513541460037231 -7287.83203125 2.000001430511475 -7289.4658203125 2.000001430511475 C -7293.6201171875 2.000001430511475 -7297 5.37999153137207 -7297 9.534561157226563 L -7297 15.70808124542236 L -7291.00048828125 15.70808124542236 L -7289.00048828125 15.70808124542236 L -7289.00048828125 17.70808219909668 L -7289.00048828125 19.21416091918945 L -7271.00048828125 19.21416091918945 M -7269.00048828125 21.21416091918945 L -7291.00048828125 21.21416091918945 L -7291.00048828125 17.70808219909668 L -7299 17.70808219909668 L -7299 9.534561157226563 C -7299 4.268111228942871 -7294.73046875 1.413269046679488e-06 -7289.4658203125 1.413269046679488e-06 C -7287.33447265625 1.413269046679488e-06 -7285.3662109375 0.6992313861846924 -7283.7783203125 1.880391359329224 C -7282.60009765625 1.449551463127136 -7281.328125 1.214491367340088 -7280.00048828125 1.214491367340088 C -7278.63818359375 1.214491367340088 -7277.33349609375 1.46234142780304 -7276.12939453125 1.915001392364502 C -7274.53369140625 0.7127414345741272 -7272.548828125 1.413269046679488e-06 -7270.396484375 1.413269046679488e-06 C -7265.1298828125 1.413269046679488e-06 -7260.86181640625 4.268111228942871 -7260.86181640625 9.534561157226563 L -7260.86181640625 17.70808219909668 L -7269.00048828125 17.70808219909668 L -7269.00048828125 21.21416091918945 Z" stroke="none" fill="#e59b1e"/>
      </g>
    </g>
    <path id="패스_2389" data-name="패스 2389" d="M7446,180.567s-10.183-.785-10.445,15.305" transform="translate(-7298.555)" fill="none" stroke="#e59b1e" stroke-width="2"/>
    <path id="패스_2390" data-name="패스 2390" d="M7435.555,180.567s10.183-.785,10.445,15.305" transform="translate(-7288.955)" fill="none" stroke="#e59b1e" stroke-width="2"/>
    <g id="타원_224" data-name="타원 224" transform="translate(140 167)" fill="none" stroke="#e59b1e" stroke-width="2">
      <circle cx="7" cy="7" r="7" stroke="none"/>
      <circle cx="7" cy="7" r="6" fill="none"/>
    </g>
  </g>
</svg>
