<svg xmlns="http://www.w3.org/2000/svg" width="40" height="40" viewBox="0 0 40 40"><g transform="translate(-405 -493)"><rect width="40" height="40" rx="20" transform="translate(405 493)" fill="none"/><g transform="translate(409 497)"><path d="M22.393,18.113C21.428,12.172,19.152,8,16.5,8s-4.924,4.172-5.889,10.113ZM10.115,24.5a41.693,41.693,0,0,0,.22,4.258H22.665a41.692,41.692,0,0,0,.22-4.258,41.692,41.692,0,0,0-.22-4.258H10.335A41.693,41.693,0,0,0,10.115,24.5Zm21.607-6.387A16.537,16.537,0,0,0,21.208,8.692a22.452,22.452,0,0,1,3.327,9.421ZM11.792,8.692A16.526,16.526,0,0,0,1.284,18.113H8.471a22.361,22.361,0,0,1,3.321-9.421Zm20.642,11.55H24.8c.14,1.4.22,2.828.22,4.258s-.08,2.861-.22,4.258h7.626A16.355,16.355,0,0,0,33,24.5a16.64,16.64,0,0,0-.566-4.258ZM7.985,24.5c0-1.43.08-2.861.22-4.258H.572a16.127,16.127,0,0,0,0,8.516H8.2C8.065,27.361,7.985,25.93,7.985,24.5Zm2.629,6.387C11.579,36.828,13.855,41,16.5,41s4.924-4.172,5.889-10.113Zm10.6,9.421a16.553,16.553,0,0,0,10.514-9.421H24.542A22.453,22.453,0,0,1,21.215,40.308ZM1.284,30.887A16.537,16.537,0,0,0,11.8,40.308a22.452,22.452,0,0,1-3.327-9.421H1.284Z" transform="translate(0 -8)" fill="none" stroke="#8f8f8f" stroke-width="1" opacity="0.6"/></g></g></svg>