<svg xmlns="http://www.w3.org/2000/svg" width="38" height="38" viewBox="0 0 38 38"><path d="M25.785,19.645C24.674,12.8,22.054,8,19,8s-5.67,4.8-6.782,11.645ZM11.648,27a48.01,48.01,0,0,0,.253,4.9H26.1a48.009,48.009,0,0,0,.253-4.9,48.01,48.01,0,0,0-.253-4.9H11.9A48.01,48.01,0,0,0,11.648,27Zm24.881-7.355A19.043,19.043,0,0,0,24.421,8.8c1.87,2.59,3.157,6.489,3.831,10.848ZM13.579,8.8a19.03,19.03,0,0,0-12.1,10.848H9.755c.667-4.359,1.954-8.259,3.824-10.848Zm23.77,13.3H28.559c.161,1.609.253,3.256.253,4.9s-.092,3.294-.253,4.9h8.782A18.833,18.833,0,0,0,38,27a19.162,19.162,0,0,0-.651-4.9ZM9.2,27c0-1.647.092-3.294.253-4.9H.659a18.57,18.57,0,0,0,0,9.806H9.441C9.287,30.294,9.2,28.647,9.2,27Zm3.027,7.355C13.333,41.2,15.954,46,19,46s5.67-4.8,6.782-11.645ZM24.429,45.2A19.061,19.061,0,0,0,36.536,34.355H28.261C27.586,38.714,26.3,42.614,24.429,45.2ZM1.479,34.355A19.043,19.043,0,0,0,13.586,45.2c-1.87-2.59-3.157-6.489-3.831-10.848H1.479Z" transform="translate(0 -8)" fill="#fff" opacity="0.8"/></svg>