<svg xmlns="http://www.w3.org/2000/svg" width="30" height="32.938" viewBox="0 0 30 32.938">
  <path id="bell" d="M27.461,22.643c-1.207-1.3-3.467-3.249-3.467-9.643a9.87,9.87,0,0,0-8-9.7V2a2,2,0,1,0-4,0V3.3A9.87,9.87,0,0,0,4,13c0,6.394-2.259,8.346-3.467,9.643A1.953,1.953,0,0,0,0,24a2,2,0,0,0,2.006,2H25.993A2,2,0,0,0,28,24,1.952,1.952,0,0,0,27.461,22.643ZM14,30.938c2.208,0,4.065-.512,4.065-2.721h-8C10.068,30.426,11.792,30.938,14,30.938Z" transform="translate(1.001 1)" fill="none" stroke="#a49fba" stroke-width="2"/>
</svg>
