<svg xmlns="http://www.w3.org/2000/svg" width="30" height="30.003" viewBox="0 0 30 30.003"><g opacity="0.8"><path d="M34.754,25.647l-6.2-6.2a4.136,4.136,0,0,0-2.929-1.216,4.2,4.2,0,0,0-3.016,1.306l-.345-.345a4.217,4.217,0,0,0,1.306-3.019,4.136,4.136,0,0,0-1.216-2.929l-6.2-6.2a4.136,4.136,0,0,0-5.859,0l-3.1,3.1a4.136,4.136,0,0,0,0,5.859l6.2,6.2a4.136,4.136,0,0,0,2.929,1.216,4.2,4.2,0,0,0,3.016-1.306l.345.345a4.217,4.217,0,0,0-1.306,3.019A4.136,4.136,0,0,0,19.59,28.4l6.2,6.2a4.136,4.136,0,0,0,5.859,0l3.1-3.1a4.136,4.136,0,0,0,0-5.859Zm-18.12-4.458L8.772,12.882l4.618-4.6,8.049,7.888-1.373,1.655-2.712-2.506c-.808-.807-1.691-1.424-2.5-.616s-.3,1.65.51,2.457l3.007,2.621ZM28.723,33.307l-8.064-7.66,1.6-1.8,2.37,2.365c.808.807,1.65,1.528,2.457.72s.218-1.534-.59-2.341L24.185,22.2l1.609-1.568,7.762,7.944Z" transform="translate(-5.971 -5.821)" fill="#f3c26f"/></g></svg>