<svg xmlns="http://www.w3.org/2000/svg" width="24.001" height="32.001" viewBox="0 0 24.001 32.001">
  <g id="합치기_37" data-name="합치기 37" transform="translate(8465 -15301.001)" fill="rgba(255,255,255,0)" opacity="0.8">
    <path d="M -8441.4990234375 15332.501953125 L -8464.5 15332.501953125 L -8464.5 15326.8828125 C -8464.5 15324.626953125 -8463.84765625 15322.443359375 -8462.61328125 15320.5673828125 C -8461.41015625 15318.73828125 -8459.7216796875 15317.2958984375 -8457.732421875 15316.3974609375 L -8456.9697265625 15316.0517578125 L -8457.634765625 15315.5439453125 C -8458.5693359375 15314.8310546875 -8459.3427734375 15313.8984375 -8459.873046875 15312.8466796875 C -8460.4287109375 15311.744140625 -8460.7099609375 15310.552734375 -8460.7099609375 15309.3056640625 C -8460.7099609375 15305.001953125 -8457.25 15301.5009765625 -8452.998046875 15301.5009765625 C -8448.74609375 15301.5009765625 -8445.2861328125 15305.001953125 -8445.2861328125 15309.3056640625 C -8445.2861328125 15310.552734375 -8445.5673828125 15311.744140625 -8446.123046875 15312.8466796875 C -8446.6533203125 15313.8994140625 -8447.4267578125 15314.83203125 -8448.361328125 15315.544921875 L -8449.0263671875 15316.052734375 L -8448.263671875 15316.3974609375 C -8446.275390625 15317.2978515625 -8444.587890625 15318.7392578125 -8443.384765625 15320.568359375 C -8442.1513671875 15322.443359375 -8441.4990234375 15324.626953125 -8441.4990234375 15326.8828125 L -8441.4990234375 15332.501953125 Z" stroke="none"/>
    <path d="M -8441.9990234375 15332.001953125 L -8441.9990234375 15326.8828125 C -8441.9990234375 15322.568359375 -8444.5390625 15318.6318359375 -8448.4697265625 15316.853515625 L -8449.9951171875 15316.1630859375 L -8448.6640625 15315.1474609375 C -8446.8349609375 15313.751953125 -8445.7861328125 15311.6220703125 -8445.7861328125 15309.3056640625 C -8445.7861328125 15305.2783203125 -8449.021484375 15302.0009765625 -8452.998046875 15302.0009765625 C -8456.974609375 15302.0009765625 -8460.2099609375 15305.2783203125 -8460.2099609375 15309.3056640625 C -8460.2099609375 15311.6220703125 -8459.1611328125 15313.7509765625 -8457.33203125 15315.146484375 L -8456 15316.1630859375 L -8457.5263671875 15316.8525390625 C -8461.458984375 15318.6298828125 -8464 15322.5673828125 -8464 15326.8828125 L -8464 15332.001953125 L -8441.9990234375 15332.001953125 M -8440.9990234375 15333.001953125 L -8465 15333.001953125 L -8465 15326.8828125 C -8465 15322.0146484375 -8462.103515625 15317.82421875 -8457.9384765625 15315.94140625 C -8459.92578125 15314.4248046875 -8461.2099609375 15312.0166015625 -8461.2099609375 15309.3056640625 C -8461.2099609375 15304.71875 -8457.5341796875 15301.0009765625 -8452.998046875 15301.0009765625 C -8448.4609375 15301.0009765625 -8444.7861328125 15304.71875 -8444.7861328125 15309.3056640625 C -8444.7861328125 15312.0166015625 -8446.0703125 15314.42578125 -8448.0576171875 15315.9423828125 C -8443.8955078125 15317.8251953125 -8440.9990234375 15322.0146484375 -8440.9990234375 15326.8828125 L -8440.9990234375 15333.001953125 Z" stroke="none" fill="#a49fba"/>
  </g>
</svg>
