<svg xmlns="http://www.w3.org/2000/svg" width="40" height="40" viewBox="0 0 40 40"><g transform="translate(-620 -347)"><rect width="40" height="40" transform="translate(620 347)" fill="none" opacity="0.3"/><path d="M1908.905,437.724c1.335-2.453,15.013-17.658,17.221-16.1s-5.744,18.458-8.913,21.822-5.278,1.083-7.059-.3S1907.57,440.177,1908.905,437.724Z" transform="translate(-1270.148 -72.514)" fill="none" stroke="#b8b8b8" stroke-linecap="round" stroke-linejoin="bevel" stroke-width="1"/><g transform="translate(-1275.878 -69.069)" fill="none" stroke-linecap="round" stroke-linejoin="round"><path d="M1909.45,439.89a6.178,6.178,0,0,0-5.26,5.408c-.51,2.977.26,3.252-1.331,4.454s-4.307,1.645-4.047,2.585,5.378,1.506,5.378,1.506a34.223,34.223,0,0,0,8.175-1.183c3.037-1.058,3.562-1.255,4.465-2.572s.811-3.372.64-4.789-2.56-3.5-2.56-3.5A6.618,6.618,0,0,0,1909.45,439.89Z" stroke="none"/><path d="M 1910.295532226563 441.8307800292969 C 1910.129638671875 441.8307800292969 1909.960693359375 441.8411865234375 1909.792602539063 441.8617553710938 C 1907.619506835938 442.3431701660156 1906.53173828125 443.4756164550781 1906.161254882813 445.6355895996094 C 1906.011962890625 446.506103515625 1905.988525390625 447.1114196777344 1905.9697265625 447.5978088378906 C 1905.913940429688 449.0355224609375 1905.751220703125 450.0732727050781 1904.064453125 451.3476257324219 C 1903.880615234375 451.4865417480469 1903.689208984375 451.6158142089844 1903.493896484375 451.7367248535156 C 1903.755126953125 451.7745971679688 1904.017578125 451.8091430664063 1904.275390625 451.8392028808594 C 1905.731201171875 451.7936706542969 1909.528686523438 451.5293273925781 1911.706665039063 450.7703247070313 C 1914.636108398438 449.7495727539063 1914.666870117188 449.7047424316406 1915.180053710938 448.9561767578125 C 1915.406616210938 448.6255798339844 1915.746826171875 447.7462463378906 1915.487670898438 445.5671997070313 C 1915.3603515625 445.1444396972656 1914.449096679688 444.0558166503906 1913.596557617188 443.3099975585938 C 1913.5302734375 443.2522277832031 1913.494140625 443.2197570800781 1913.438110351563 443.1562194824219 C 1913.334228515625 443.0513610839844 1912.084716796875 441.8308715820313 1910.295654296875 441.8307800292969 C 1910.295654296875 441.8307800292969 1910.295532226563 441.8307800292969 1910.295532226563 441.8307800292969 M 1910.2958984375 439.8307800292969 C 1913.115600585938 439.8309326171875 1914.90966796875 441.8013916015625 1914.90966796875 441.8013916015625 C 1914.90966796875 441.8013916015625 1917.298828125 443.880859375 1917.4697265625 445.2977294921875 C 1917.640869140625 446.714599609375 1917.732421875 448.7701721191406 1916.82958984375 450.0870666503906 C 1915.9267578125 451.4040222167969 1915.40185546875 451.6006774902344 1912.36474609375 452.6589660644531 C 1909.32763671875 453.7173461914063 1904.18994140625 453.8423461914063 1904.18994140625 453.8423461914063 C 1904.18994140625 453.8423461914063 1899.070556640625 453.2767639160156 1898.8115234375 452.3368225097656 C 1898.55224609375 451.3969116210938 1901.267578125 450.9540405273438 1902.85888671875 449.7518310546875 C 1904.449951171875 448.5497741699219 1903.6796875 448.27490234375 1904.18994140625 445.2977294921875 C 1904.70068359375 442.3204650878906 1906.43017578125 440.53125 1909.449951171875 439.8895874023438 C 1909.7412109375 439.8491821289063 1910.023193359375 439.8307495117188 1910.2958984375 439.8307800292969 Z" stroke="none" fill="#d1d1d1"/></g></g></svg>