<svg xmlns="http://www.w3.org/2000/svg" width="30.123" height="30.812" viewBox="0 0 30.123 30.812">
  <g id="그룹_5102" data-name="그룹 5102" transform="translate(-492.943 -301.991)">
    <path id="빼기_10" data-name="빼기 10" d="M-7953.008,70.843h0a15.64,15.64,0,0,1-2.08-.146,12.119,12.119,0,0,1-4.327-1.412V44.771a9.381,9.381,0,0,1,5.96-1.751,14.462,14.462,0,0,1,2.157.153,9.3,9.3,0,0,1,4.65,2.563,13.631,13.631,0,0,1,3.2,5.02A25.792,25.792,0,0,1-7942,59.885h-1.78c0,.01-.044.441-.1.987-.076.748-.175,1.722-.222,2.172a60.839,60.839,0,0,0-7.556-.855c-1.11,0-1.681.149-1.7.441-.062,1.182,9.16,2.486,9.252,2.5a.014.014,0,0,1,0,.008,8.15,8.15,0,0,1-1.738,2.849,8.5,8.5,0,0,1-2.724,1.964A10.65,10.65,0,0,1-7953.008,70.843Zm2.515-20.764c-1.218,0-2.209,1.352-2.209,3.014s.991,3.014,2.209,3.014,2.207-1.352,2.207-3.014S-7949.276,50.079-7950.493,50.079Z" transform="translate(8452.358 258.971)" fill="#8f8f8f"/>
    <path id="패스_2411" data-name="패스 2411" d="M8401.4,317.01h0c-.007,0-1.685-.486-1.685,2.007v14.778s1.75,4.56,6.585,4.485,6-5.294,6-5.294v-6.568s-.126-2.108-1.445-2.108-1.8,2.108-1.8,2.108-.155-2.108-1.544-2.108-1.212,2.108-1.212,2.108-.795-2.108-1.894-2.108-1.229,2.108-1.229,2.108v-7.273Z" transform="translate(-7889.237 -5.478)" fill="#8f8f8f"/>
  </g>
</svg>
