<svg xmlns="http://www.w3.org/2000/svg" width="34.265" height="38" viewBox="0 0 34.265 38"><path d="M840.554-1389.14a5.537,5.537,0,0,0-3.731,1.469l-13.573-7.917a6.254,6.254,0,0,0,.171-1.335,6.256,6.256,0,0,0-.171-1.335l13.421-7.84a5.68,5.68,0,0,0,3.883,1.545,5.709,5.709,0,0,0,5.711-5.723,5.709,5.709,0,0,0-5.711-5.723,5.709,5.709,0,0,0-5.711,5.723,6.25,6.25,0,0,0,.171,1.335l-13.421,7.841a5.681,5.681,0,0,0-3.883-1.545,5.709,5.709,0,0,0-5.711,5.723,5.709,5.709,0,0,0,5.711,5.723,5.68,5.68,0,0,0,3.883-1.545l13.554,7.936a5.394,5.394,0,0,0-.152,1.24,5.571,5.571,0,0,0,5.559,5.57,5.571,5.571,0,0,0,5.558-5.57A5.571,5.571,0,0,0,840.554-1389.14Z" transform="translate(-812 1416)" fill="#fff" opacity="0.8"/></svg>