<svg xmlns="http://www.w3.org/2000/svg" width="41.033" height="41.224" viewBox="0 0 41.033 41.224">
  <g id="그룹_4866" data-name="그룹 4866" transform="translate(11.445 11)">
    <g id="패스_2264" data-name="패스 2264" transform="matrix(0.966, 0.259, -0.259, 0.966, -3.68, -11)" fill="none">
      <path d="M15,0A15,15,0,1,1,0,15,15,15,0,0,1,15,0Z" stroke="none"/>
      <path d="M 15 3 C 11.79467964172363 3 8.781219482421875 4.248220443725586 6.514720916748047 6.514720916748047 C 4.248220443725586 8.781219482421875 3 11.79467964172363 3 15 C 3 18.20532035827637 4.248220443725586 21.21878051757813 6.514720916748047 23.48527908325195 C 8.781219482421875 25.75177955627441 11.79467964172363 27 15 27 C 18.20532035827637 27 21.21878051757813 25.75177955627441 23.48527908325195 23.48527908325195 C 25.75177955627441 21.21878051757813 27 18.20532035827637 27 15 C 27 11.79467964172363 25.75177955627441 8.781219482421875 23.48527908325195 6.514720916748047 C 21.21878051757813 4.248220443725586 18.20532035827637 3 15 3 M 15 0 C 23.28426933288574 0 30 6.715730667114258 30 15 C 30 23.28426933288574 23.28426933288574 30 15 30 C 6.715730667114258 30 0 23.28426933288574 0 15 C 0 6.715730667114258 6.715730667114258 0 15 0 Z" stroke="none" fill="#616161"/>
    </g>
    <path id="패스_405" data-name="패스 405" d="M0,0,9,11" transform="matrix(0.996, -0.087, 0.087, 0.996, 17.377, 16.979)" fill="none" stroke="#616161" stroke-linecap="round" stroke-width="3"/>
  </g>
</svg>
