<svg xmlns="http://www.w3.org/2000/svg" width="33" height="39" viewBox="0 0 33 39"><path d="M28,4.75H21.333C21.333,2.13,18.942,0,16,0s-5.333,2.13-5.333,4.75H4A3.8,3.8,0,0,0,0,8.312V34.438A3.8,3.8,0,0,0,4,38H28a3.8,3.8,0,0,0,4-3.562V8.312A3.8,3.8,0,0,0,28,4.75ZM16,2.969A1.9,1.9,0,0,1,18,4.75a1.9,1.9,0,0,1-2,1.781A1.9,1.9,0,0,1,14,4.75,1.9,1.9,0,0,1,16,2.969ZM28,33.992a.476.476,0,0,1-.5.445H4.5a.476.476,0,0,1-.5-.445V8.758a.476.476,0,0,1,.5-.445H8v2.672a.953.953,0,0,0,1,.891H23a.953.953,0,0,0,1-.891V8.312h3.5a.476.476,0,0,1,.5.445Z" transform="translate(0.5 0.5)" fill="none" stroke="#a49fba" stroke-width="1" opacity="0.7"/></svg>