<svg xmlns="http://www.w3.org/2000/svg" width="33" height="36" viewBox="0 0 33 36"><g transform="translate(-196.613 -264)"><g transform="translate(223.679 294.874) rotate(180)" fill="none" stroke-linecap="round"><path d="M0,16.971H17.628v7.992l9.438-12.481L17.628,0V8.011H0Z" stroke="none"/><path d="M 18.62839698791504 21.98184776306152 L 25.81242752075195 12.4811429977417 L 18.62839698791504 2.980469226837158 L 18.62839698791504 8.010612487792969 L 18.62839698791504 9.010612487792969 L 17.62839698791504 9.010612487792969 L 0.9999976754188538 9.010612487792969 L 0.9999976754188538 15.97077178955078 L 8.072378158569336 15.97077178955078 L 17.62839698791504 15.97077178955078 L 18.62839698791504 15.97077178955078 L 18.62839698791504 16.97077178955078 L 18.62839698791504 21.98184776306152 M 17.62839698791504 24.96232223510742 L 17.62839698791504 16.97077178955078 L 8.072378158569336 16.97077178955078 L -2.296752882102737e-06 16.97077178955078 L -2.296752882102737e-06 8.010612487792969 L 17.62839698791504 8.010612487792969 L 17.62839698791504 2.071227982014534e-06 L 27.06613731384277 12.48114204406738 L 17.62839698791504 24.96232223510742 Z" stroke="none" fill="#bcb8cb"/></g><path d="M7500.5,267.663h20.193v34H7500.5" transform="translate(-7292.08 -2.663)" fill="none" stroke="#cfcbdf" stroke-linecap="round" stroke-width="2"/></g></svg>