<svg xmlns="http://www.w3.org/2000/svg" width="32.002" height="38.003" viewBox="0 0 32.002 38.003"><g transform="translate(8464.999 -15301.001)" fill="rgba(255,255,255,0)" opacity="0.8"><path d="M -8433.4970703125 15338.50390625 L -8464.4990234375 15338.50390625 L -8464.4990234375 15333.4833984375 C -8464.4990234375 15327.3408203125 -8460.865234375 15321.7705078125 -8455.2421875 15319.2939453125 L -8454.400390625 15318.9228515625 L -8455.1689453125 15318.41796875 C -8456.46875 15317.5634765625 -8457.5458984375 15316.435546875 -8458.2841796875 15315.1552734375 C -8459.0537109375 15313.8203125 -8459.4443359375 15312.3759765625 -8459.4443359375 15310.86328125 C -8459.4443359375 15305.701171875 -8454.7568359375 15301.5009765625 -8448.99609375 15301.5009765625 C -8443.232421875 15301.5009765625 -8438.5439453125 15305.701171875 -8438.5439453125 15310.86328125 C -8438.5439453125 15312.376953125 -8438.9345703125 15313.8212890625 -8439.7060546875 15315.15625 C -8440.4453125 15316.4365234375 -8441.5244140625 15317.564453125 -8442.8251953125 15318.4189453125 L -8443.59375 15318.923828125 L -8442.7529296875 15319.2939453125 C -8437.1298828125 15321.7734375 -8433.4970703125 15327.3427734375 -8433.4970703125 15333.4833984375 L -8433.4970703125 15338.50390625 Z" stroke="none"/><path d="M -8433.9970703125 15338.00390625 L -8433.9970703125 15333.4833984375 C -8433.9970703125 15327.541015625 -8437.5126953125 15322.1513671875 -8442.9541015625 15319.751953125 L -8444.63671875 15319.009765625 L -8443.099609375 15318.0009765625 C -8441.86328125 15317.189453125 -8440.83984375 15316.119140625 -8440.138671875 15314.90625 C -8439.412109375 15313.6484375 -8439.0439453125 15312.2880859375 -8439.0439453125 15310.86328125 C -8439.0439453125 15305.9765625 -8443.5087890625 15302.0009765625 -8448.99609375 15302.0009765625 C -8454.4814453125 15302.0009765625 -8458.9443359375 15305.9765625 -8458.9443359375 15310.86328125 C -8458.9443359375 15312.287109375 -8458.576171875 15313.6474609375 -8457.8505859375 15314.9052734375 C -8457.1513671875 15316.1181640625 -8456.12890625 15317.1884765625 -8454.8935546875 15318 L -8453.3583984375 15319.009765625 L -8455.0400390625 15319.7509765625 C -8460.482421875 15322.1484375 -8463.9990234375 15327.5380859375 -8463.9990234375 15333.4833984375 L -8463.9990234375 15338.00390625 L -8433.9970703125 15338.00390625 M -8432.9970703125 15339.00390625 L -8464.9990234375 15339.00390625 L -8464.9990234375 15333.4833984375 C -8464.9990234375 15326.9404296875 -8461.0703125 15321.314453125 -8455.443359375 15318.8359375 C -8458.171875 15317.0419921875 -8459.9443359375 15314.138671875 -8459.9443359375 15310.86328125 C -8459.9443359375 15305.416015625 -8455.0439453125 15301.0009765625 -8448.99609375 15301.0009765625 C -8442.9482421875 15301.0009765625 -8438.0439453125 15305.416015625 -8438.0439453125 15310.86328125 C -8438.0439453125 15314.140625 -8439.8193359375 15317.0439453125 -8442.55078125 15318.8369140625 C -8436.9248046875 15321.3173828125 -8432.9970703125 15326.9423828125 -8432.9970703125 15333.4833984375 L -8432.9970703125 15339.00390625 Z" stroke="none" fill="#a49fba"/></g></svg>