<svg xmlns="http://www.w3.org/2000/svg" width="33.116" height="31.055" viewBox="0 0 33.116 31.055"><path d="M31.561,53.9a1.689,1.689,0,0,1,0,2.273l-5,5.356A1.491,1.491,0,0,1,24,60.392V57.714H20.326a.728.728,0,0,1-.548-.255L15.368,52.4,18.7,48.57,22,52.357h2V49.68a1.491,1.491,0,0,1,2.561-1.136ZM.75,41.643H6L9.3,45.43,12.632,41.6l-4.41-5.062a.728.728,0,0,0-.548-.255H.75a.778.778,0,0,0-.75.8v3.75A.778.778,0,0,0,.75,41.643Zm23.25,0V44.32a1.491,1.491,0,0,0,2.561,1.136l5-5.356a1.689,1.689,0,0,0,0-2.273l-5-5.356A1.491,1.491,0,0,0,24,33.608v2.677H20.326a.728.728,0,0,0-.548.255L6,52.357H.75a.778.778,0,0,0-.75.8v3.75a.778.778,0,0,0,.75.8H7.674a.728.728,0,0,0,.548-.255L22,41.643Z" transform="translate(0.5 -31.473)" fill="none" stroke="#a49fba" stroke-width="1" opacity="0.7"/></svg>