<svg xmlns="http://www.w3.org/2000/svg" xmlns:xlink="http://www.w3.org/1999/xlink" width="43.93" height="43.93" viewBox="0 0 43.93 43.93"><defs><clipPath id="a"><rect width="43.93" height="43.93" fill="none"/></clipPath></defs><g clip-path="url(#a)"><g transform="translate(-426.076 -249.21)"><g transform="translate(248.388 -242.261) rotate(45)"><g transform="translate(1.811 1.039)"><path d="M4954.422,189.62s-4.948.221-5,6.083,0,4.731,0,4.731H4946.7v6.477h7.724" transform="translate(-4452 9.876)" fill="none" stroke="#338887" stroke-width="2"/><path d="M4946.7,189.62s5.012.221,5.062,6.083,0,4.731,0,4.731h2.761v6.477H4946.7" transform="translate(-4444.381 9.876)" fill="none" stroke="#338887" stroke-width="2"/></g><g transform="translate(0 0)"><path d="M4951.893,209.452v15.327l3.016,3.284.775,6.037" transform="translate(-4452 9)" fill="none" stroke="#338887" stroke-linecap="round" stroke-width="2"/><path d="M4955.684,209.452v15.327l-3.016,3.284-.775,6.037" transform="translate(-4447.41 9)" fill="none" stroke="#338887" stroke-linecap="round" stroke-width="2"/></g></g></g></g></svg>