<svg xmlns="http://www.w3.org/2000/svg" width="48" height="48" viewBox="0 0 48 48"><g transform="translate(-246 -284)"><rect width="48" height="48" transform="translate(246 284)" fill="none"/><g transform="translate(89 -77)"><g transform="translate(163.764 367.811)" fill="none" stroke="#a8a8a8" stroke-width="2"><rect width="34.299" height="34.299" stroke="none"/><rect x="1" y="1" width="32.299" height="32.299" fill="none"/></g><g transform="translate(159 364)" fill="#fff" stroke="#a8a8a8" stroke-width="2"><circle cx="4.287" cy="4.287" r="4.287" stroke="none"/><circle cx="4.287" cy="4.287" r="3.287" fill="none"/></g><g transform="translate(194.251 364)" fill="#fff" stroke="#a8a8a8" stroke-width="2"><circle cx="4.287" cy="4.287" r="4.287" stroke="none"/><circle cx="4.287" cy="4.287" r="3.287" fill="none"/></g><g transform="translate(194.251 397.346)" fill="#fff" stroke="#a8a8a8" stroke-width="2"><circle cx="4.287" cy="4.287" r="4.287" stroke="none"/><circle cx="4.287" cy="4.287" r="3.287" fill="none"/></g><g transform="translate(159 397.346)" fill="#fff" stroke="#a8a8a8" stroke-width="2"><circle cx="4.287" cy="4.287" r="4.287" stroke="none"/><circle cx="4.287" cy="4.287" r="3.287" fill="none"/></g><g transform="translate(167.575 374.48)"><path d="M5.994,0a6.922,6.922,0,0,1,6.922,6.922,7.085,7.085,0,0,1-1.385,4.154,6.711,6.711,0,0,1-4.905,2.529C3.916,13.606.452,12.351,0,8.335" transform="translate(11.695 7.777)" fill="none" stroke="#a8a8a8" stroke-linecap="round" stroke-width="2"/><g transform="translate(0 0)" fill="none"><path d="M8.365,2.341a2,2,0,0,1,3.277,0l6.162,8.8a2,2,0,0,1-1.638,3.147H3.841A2,2,0,0,1,2.2,11.144Z" stroke="none"/><path d="M 10.00373363494873 3.48758602142334 L 10.00374317169189 3.48759651184082 L 3.841314315795898 12.29105377197266 C 3.841316223144531 12.29105758666992 3.841320037841797 12.29106140136719 3.841312408447266 12.29106616973877 L 16.16616439819336 12.29106616973877 C 16.16616821289063 12.29106140136719 16.16617012023926 12.29105567932129 16.16618347167969 12.29106616973877 L 10.00373363494873 3.48758602142334 M 10.00374317169189 1.48758602142334 C 10.62392330169678 1.48758602142334 11.24410343170166 1.771945953369141 11.64220333099365 2.340665817260742 L 17.80464363098145 11.14413642883301 C 18.7325325012207 12.46969604492188 17.78422355651855 14.29106616973877 16.16617393493652 14.29106616973877 L 3.841312408447266 14.29106616973877 C 2.223262786865234 14.29106616973877 1.274953842163086 12.46969604492188 2.202842712402344 11.14413642883301 L 8.365283012390137 2.340665817260742 C 8.763382911682129 1.771945953369141 9.383563041687012 1.48758602142334 10.00374317169189 1.48758602142334 Z" stroke="none" fill="#a8a8a8"/></g></g></g></g></svg>