<svg xmlns="http://www.w3.org/2000/svg" width="46" height="46" viewBox="0 0 46 46"><g transform="translate(-557 -227)"><g transform="translate(2305 1436)" fill="#fff"><path d="M -1725.000366210938 -1164.984619140625 L -1730.2587890625 -1174.00048828125 L -1728.50048828125 -1174.00048828125 L -1727.50048828125 -1174.00048828125 L -1727.50048828125 -1175.00048828125 L -1727.50048828125 -1182.999633789063 L -1727.50048828125 -1183.999633789063 L -1728.50048828125 -1183.999633789063 L -1736.000122070313 -1183.999633789063 L -1737.000122070313 -1183.999633789063 L -1737.000122070313 -1182.999633789063 L -1737.000122070313 -1180.741088867188 L -1746.015380859375 -1186.000244140625 L -1737.000122070313 -1191.259399414063 L -1737.000122070313 -1189.999877929688 L -1737.000122070313 -1188.999877929688 L -1736.000122070313 -1188.999877929688 L -1728.50048828125 -1188.999877929688 L -1727.50048828125 -1188.999877929688 L -1727.50048828125 -1189.999877929688 L -1727.50048828125 -1197 L -1727.50048828125 -1198 L -1728.50048828125 -1198 L -1730.258666992188 -1198 L -1725.000366210938 -1207.01513671875 L -1719.7412109375 -1198 L -1721.500244140625 -1198 L -1722.500244140625 -1198 L -1722.500244140625 -1197 L -1722.500244140625 -1189.999877929688 L -1722.500244140625 -1188.999877929688 L -1721.500244140625 -1188.999877929688 L -1713.999633789063 -1188.999877929688 L -1712.999633789063 -1188.999877929688 L -1712.999633789063 -1189.999877929688 L -1712.999633789063 -1191.259399414063 L -1703.984497070313 -1186.000244140625 L -1712.999633789063 -1180.741088867188 L -1712.999633789063 -1182.999633789063 L -1712.999633789063 -1183.999633789063 L -1713.999633789063 -1183.999633789063 L -1721.500244140625 -1183.999633789063 L -1722.500244140625 -1183.999633789063 L -1722.500244140625 -1182.999633789063 L -1722.500244140625 -1175.00048828125 L -1722.500244140625 -1174.00048828125 L -1721.500244140625 -1174.00048828125 L -1719.741088867188 -1174.00048828125 L -1725.000366210938 -1164.984619140625 Z" stroke="none"/><path d="M -1725.000244140625 -1166.969360351563 L -1721.482177734375 -1173.00048828125 L -1721.500244140625 -1173.00048828125 L -1723.500244140625 -1173.00048828125 L -1723.500244140625 -1175.00048828125 L -1723.500244140625 -1182.999633789063 L -1723.500244140625 -1184.999633789063 L -1721.500244140625 -1184.999633789063 L -1713.999633789063 -1184.999633789063 L -1711.999633789063 -1184.999633789063 L -1711.999633789063 -1182.999633789063 L -1711.999633789063 -1182.482177734375 L -1705.969116210938 -1186.000244140625 L -1711.999633789063 -1189.518310546875 L -1711.999633789063 -1187.999877929688 L -1713.999633789063 -1187.999877929688 L -1721.500244140625 -1187.999877929688 L -1723.500244140625 -1187.999877929688 L -1723.500244140625 -1189.999877929688 L -1723.500244140625 -1197 L -1723.500244140625 -1199 L -1721.500244140625 -1199 L -1721.482299804688 -1199 L -1725.000244140625 -1205.030395507813 L -1728.517700195313 -1199 L -1728.50048828125 -1199 L -1726.50048828125 -1199 L -1726.50048828125 -1197 L -1726.50048828125 -1189.999877929688 L -1726.50048828125 -1187.999877929688 L -1728.50048828125 -1187.999877929688 L -1736.000122070313 -1187.999877929688 L -1738.000122070313 -1187.999877929688 L -1738.000122070313 -1189.518310546875 L -1744.03076171875 -1186.000244140625 L -1738.000122070313 -1182.482177734375 L -1738.000122070313 -1182.999633789063 L -1738.000122070313 -1184.999633789063 L -1736.000122070313 -1184.999633789063 L -1728.50048828125 -1184.999633789063 L -1726.50048828125 -1184.999633789063 L -1726.50048828125 -1182.999633789063 L -1726.50048828125 -1175.00048828125 L -1726.50048828125 -1173.00048828125 L -1728.50048828125 -1173.00048828125 L -1728.517822265625 -1173.00048828125 L -1725.000244140625 -1166.969360351563 M -1725.000366210938 -1162.999877929688 L -1731.999633789063 -1175.00048828125 L -1728.50048828125 -1175.00048828125 L -1728.50048828125 -1182.999633789063 L -1736.000122070313 -1182.999633789063 L -1736.000122070313 -1179 L -1747.999877929688 -1186.000244140625 L -1736.000122070313 -1193.00048828125 L -1736.000122070313 -1189.999877929688 L -1728.50048828125 -1189.999877929688 L -1728.50048828125 -1197 L -1731.999633789063 -1197 L -1725.000366210938 -1208.999755859375 L -1718.000122070313 -1197 L -1721.500244140625 -1197 L -1721.500244140625 -1189.999877929688 L -1713.999633789063 -1189.999877929688 L -1713.999633789063 -1193.00048828125 L -1702 -1186.000244140625 L -1713.999633789063 -1179 L -1713.999633789063 -1182.999633789063 L -1721.500244140625 -1182.999633789063 L -1721.500244140625 -1175.00048828125 L -1718.000122070313 -1175.00048828125 L -1725.000366210938 -1162.999877929688 Z" stroke="none" fill="#a8a8a8"/></g></g></svg>