<svg xmlns="http://www.w3.org/2000/svg" width="40" height="40" viewBox="0 0 40 40"><g transform="translate(-130 -493)"><rect width="40" height="40" rx="20" transform="translate(130 493)" fill="none"/><g transform="translate(134 499)"><path d="M15.932,32c8.836,0,16,6.027,16,13.464a12.118,12.118,0,0,1-3.306,8.176,16.485,16.485,0,0,0,2.9,4.738,1.6,1.6,0,0,1,.287,1.683A1.5,1.5,0,0,1,30.43,61a14.83,14.83,0,0,1-8.693-3,18.688,18.688,0,0,1-5.805.926c-8.836,0-16-6.027-16-13.464S7.1,32,15.932,32Z" transform="translate(0.066 -32)" fill="#49adef" opacity="0.7"/></g></g></svg>