<svg xmlns="http://www.w3.org/2000/svg" width="37.035" height="33" viewBox="0 0 37.035 33">
  <path id="comment-dots" d="M9.781,44.179a2.214,2.214,0,1,0,2.187,2.214A2.2,2.2,0,0,0,9.781,44.179Zm7.655,0a2.214,2.214,0,1,0,2.187,2.214A2.2,2.2,0,0,0,17.436,44.179Zm7.655,0a2.214,2.214,0,1,0,2.187,2.214A2.2,2.2,0,0,0,25.091,44.179ZM17.436,32c-9.665,0-17.5,6.442-17.5,14.393a12.8,12.8,0,0,0,3.616,8.74A17.578,17.578,0,0,1,.382,60.2,1.676,1.676,0,0,0,.068,62a1.645,1.645,0,0,0,1.511,1,16.455,16.455,0,0,0,9.508-3.2,20.873,20.873,0,0,0,6.35.99c9.665,0,17.5-6.442,17.5-14.393S27.1,32,17.436,32Z" transform="translate(1.101 -31)" fill="none" stroke="#a49fba" stroke-width="2"/>
</svg>
