<svg xmlns="http://www.w3.org/2000/svg" width="39" height="34.673" viewBox="0 0 39 34.673"><path d="M29.406,21.116a.544.544,0,0,1,.928.386v9.845a3.251,3.251,0,0,1-3.25,3.25H3.25A3.251,3.251,0,0,1,0,31.347V7.514a3.251,3.251,0,0,1,3.25-3.25H21.769c.481,0,.339.582,0,.928a5.677,5.677,0,0,1-2.047,1.385H2.4V32.148H28.2V22.494Zm8.437-11.5L20.062,27.4l-6.121.677a2.8,2.8,0,0,1-3.088-3.088l.677-6.121L29.312,1.088a3.952,3.952,0,0,1,5.6,0l2.925,2.925a3.966,3.966,0,0,1,.007,5.606Zm-5.52,2.336-5.4-5.7L13.321,20l-.357,5.961,6.168-.662Zm.4-9.793C29.851,1.941,28.2,4.777,28.2,4.777l5.556,6.146s3.115-2.162,3.115-4.348A4.185,4.185,0,0,0,32.725,2.162Z" transform="translate(0 0.075)" fill="#f1ad39" opacity="0.9"/></svg>