<svg xmlns="http://www.w3.org/2000/svg" width="40" height="40" viewBox="0 0 40 40"><g transform="translate(-387 -304)"><rect width="40" height="40" transform="translate(387 304)" fill="#f7f7f7" opacity="0"/><ellipse cx="9.924" cy="9.788" rx="9.924" ry="9.788" transform="translate(392.58 309.999)" fill="#f1ad39"/><path d="M14.5,0h0A14.5,14.5,0,0,1,29,14.5v2.142a0,0,0,0,1,0,0H0a0,0,0,0,1,0,0V14.5A14.5,14.5,0,0,1,14.5,0Z" transform="translate(388.001 326.359)" fill="#f1ad39"/><g transform="translate(-1 14)"><line y2="22" transform="translate(416 304)" fill="none" stroke="#fff" stroke-width="10"/><line x2="22" transform="translate(405 315)" fill="none" stroke="#fff" stroke-width="10"/></g><g transform="translate(-1 14)"><line y2="18" transform="translate(416 306)" fill="none" stroke="#f1ad39" stroke-width="5"/><line x2="18" transform="translate(407 315)" fill="none" stroke="#f1ad39" stroke-width="5"/></g></g></svg>