<svg xmlns="http://www.w3.org/2000/svg" width="38" height="38" viewBox="0 0 38 38"><g transform="translate(-660 -313)"><rect width="38" height="38" transform="translate(660 313)" fill="#fff" opacity="0"/><g transform="translate(-1 -2.081)"><path d="M8566.81,318.494h-4.717s1.4,5.754-4.245,11.4l8.5,15.327V335s-1.647-1.083-1.944-2.189a2.531,2.531,0,0,1,2.413-2.92" transform="translate(-7886.848)" fill="#fff"/><path d="M8557.45,318.494h4.858s-1.4,5.754,4.245,11.4l-8.5,15.327V335a3.721,3.721,0,0,0,1.66-1.85c.3-1.105-.629-3.259-2.329-3.259" transform="translate(-7877.488)" fill="#fff"/></g><g transform="translate(665 343)" fill="#fff" stroke="#fff" stroke-width="2"><circle cx="2.5" cy="2.5" r="2.5" stroke="none"/><circle cx="2.5" cy="2.5" r="1.5" fill="none"/></g><g transform="translate(688 343)" fill="#fff" stroke="#fff" stroke-width="2"><circle cx="2.5" cy="2.5" r="2.5" stroke="none"/><circle cx="2.5" cy="2.5" r="1.5" fill="none"/></g><line x2="20" transform="translate(668.5 345.5)" fill="none" stroke="#fff" stroke-width="2"/></g></svg>