<svg xmlns="http://www.w3.org/2000/svg" width="36.405" height="32.641" viewBox="0 0 36.405 32.641">
  <g id="그룹_5034" data-name="그룹 5034" transform="translate(-191.613 -264)">
    <g id="패스_2392" data-name="패스 2392" transform="translate(220.655 291.723) rotate(180)" fill="none" stroke-linecap="round">
      <path d="M0,15H20.082V22.06l8.961-11.03L20.082,0V7.079H0Z" stroke="none"/>
      <path d="M 21.08154106140137 19.24325561523438 L 27.75406455993652 11.0300178527832 L 21.08154106140137 2.81680965423584 L 21.08154106140137 7.079257011413574 L 21.08154106140137 8.079257011413574 L 20.08154106140137 8.079257011413574 L 1.000000238418579 8.079257011413574 L 1.000000238418579 13.99765682220459 L 11.00829982757568 13.99765682220459 L 20.08154106140137 13.99765682220459 L 21.08154106140137 13.99765682220459 L 21.08154106140137 14.99765682220459 L 21.08154106140137 19.24325561523438 M 20.08154106140137 22.06007766723633 L 20.08154106140137 14.99765682220459 L 11.00829982757568 14.99765682220459 L 2.343749940791895e-07 14.99765682220459 L 2.343749940791895e-07 7.079257011413574 L 20.08154106140137 7.079257011413574 L 20.08154106140137 -3.073730567848543e-06 L 29.04248046875 11.03001689910889 L 20.08154106140137 22.06007766723633 Z" stroke="none" fill="#bcb8cb"/>
    </g>
    <path id="패스_2393" data-name="패스 2393" d="M7500.5,267.663h19.173V298.3H7500.5" transform="translate(-7292.655 -2.663)" fill="none" stroke="#cfcbdf" stroke-linecap="round" stroke-width="2"/>
  </g>
</svg>
