<svg xmlns="http://www.w3.org/2000/svg" width="34.808" height="31.057" viewBox="0 0 34.808 31.057"><path d="M25.492,18.3a.472.472,0,0,1,.8.335v8.534a2.818,2.818,0,0,1-2.817,2.817H2.817A2.818,2.818,0,0,1,0,27.164V6.5A2.818,2.818,0,0,1,2.817,3.686H18.871c.417,0,.293.5,0,.8a1.975,1.975,0,0,1-1.479.658l-15.7.212V28.28H24.975V19.369Zm7.314-9.967L17.392,23.742l-5.306.587a2.425,2.425,0,0,1-2.677-2.677L10,16.347,25.41.933a3.426,3.426,0,0,1,4.854,0L32.8,3.469a3.438,3.438,0,0,1,.006,4.86Zm-4.144,2.492L23.174,4.49,10.858,17.04l-.3,6.225,6.582-.678ZM32.328,4.49c-.834-1.369-1.35-2.309-2.858-3a3.908,3.908,0,0,0-3.174.244l-2.36,2.249L29.21,10.15,32.8,6.5S33.162,5.859,32.328,4.49Z" transform="translate(0.5 0.575)" fill="#a49fba" stroke="#a49fba" stroke-width="1" opacity="0.7"/></svg>