<svg xmlns="http://www.w3.org/2000/svg" width="26" height="32.951" viewBox="0 0 26 32.951">
  <path id="clipboard" d="M21.875,3.994H16.667A4.087,4.087,0,0,0,12.5,0,4.087,4.087,0,0,0,8.333,3.994H3.125A3.063,3.063,0,0,0,0,6.989V28.955a3.063,3.063,0,0,0,3.125,3h18.75a3.063,3.063,0,0,0,3.125-3V6.989A3.063,3.063,0,0,0,21.875,3.994ZM12.5,2.5a1.527,1.527,0,0,1,1.562,1.5,1.564,1.564,0,0,1-3.125,0A1.527,1.527,0,0,1,12.5,2.5Zm9.375,26.085a.384.384,0,0,1-.391.374H3.516a.384.384,0,0,1-.391-.374V7.364a.384.384,0,0,1,.391-.374H6.25V9.236a.768.768,0,0,0,.781.749H17.969a.768.768,0,0,0,.781-.749V6.989h2.734a.384.384,0,0,1,.391.374Z" transform="translate(0.5 0.5)" fill="none" stroke="#a49fba" stroke-width="1" opacity="0.7"/>
</svg>
