<svg xmlns="http://www.w3.org/2000/svg" width="157.036" height="175.034" viewBox="0 0 157.036 175.034"><g transform="translate(-698 -923.965)"><g transform="translate(8585 925)" fill="none"><path d="M-7741,174h-136a9.935,9.935,0,0,1-7.071-2.928A9.933,9.933,0,0,1-7887,164V10a10.011,10.011,0,0,1,10-10h96V44a5.006,5.006,0,0,0,5,5h45V164a9.933,9.933,0,0,1-2.929,7.072A9.933,9.933,0,0,1-7741,174Z" stroke="none"/><path d="M -7740.99951171875 168.9990386962891 C -7739.6640625 168.9990386962891 -7738.40869140625 168.4792327880859 -7737.4638671875 167.5346221923828 C -7736.52001953125 166.5908660888672 -7736 165.3352813720703 -7736 163.9992370605469 L -7736 53.99946594238281 L -7776.0009765625 53.99946594238281 C -7781.51513671875 53.99946594238281 -7786.0009765625 49.51354598999023 -7786.0009765625 43.99957275390625 L -7786.0009765625 4.999992847442627 L -7877.00048828125 4.999992847442627 C -7879.75732421875 4.999992847442627 -7882.00048828125 7.242914199829102 -7882.00048828125 9.999809265136719 L -7882.00048828125 163.9992370605469 C -7882.00048828125 165.3352813720703 -7881.48046875 166.5908660888672 -7880.5361328125 167.534912109375 C -7879.591796875 168.4790649414063 -7878.3359375 168.9990386962891 -7877.00048828125 168.9990386962891 L -7740.99951171875 168.9990386962891 M -7740.99951171875 173.9990386962891 L -7877.00048828125 173.9990386962891 C -7879.67138671875 173.9990386962891 -7882.1826171875 172.9590911865234 -7884.0712890625 171.0708160400391 C -7885.96044921875 169.1823425292969 -7887.00048828125 166.6709594726563 -7887.00048828125 163.9992370605469 L -7887.00048828125 9.999809265136719 C -7887.00048828125 4.485888004302979 -7882.5146484375 -6.967644821997965e-06 -7877.00048828125 -6.967644821997965e-06 L -7781.0009765625 -6.967644821997965e-06 L -7781.0009765625 43.99957275390625 C -7781.0009765625 46.75651931762695 -7778.7578125 48.99946594238281 -7776.0009765625 48.99946594238281 L -7731 48.99946594238281 L -7731 163.9992370605469 C -7731 166.6709594726563 -7732.0400390625 169.1823425292969 -7733.92919921875 171.0708160400391 C -7735.8173828125 172.9590911865234 -7738.32861328125 173.9990386962891 -7740.99951171875 173.9990386962891 Z" stroke="none" fill="#f1d3a1"/></g><line x2="48" y2="47" transform="translate(803.5 927.5)" fill="none" stroke="#f1d3a1" stroke-linecap="round" stroke-width="5"/><g transform="translate(11 9)"><g transform="translate(722 969)" fill="none" stroke="#f1d3a1" stroke-width="8"><circle cx="33" cy="33" r="33" stroke="none"/><circle cx="33" cy="33" r="29" fill="none"/></g><line x2="21.939" y2="21.939" transform="translate(777.726 1024.726)" fill="none" stroke="#f1d3a1" stroke-linecap="round" stroke-width="8"/></g></g></svg>