<svg xmlns="http://www.w3.org/2000/svg" width="38" height="38" viewBox="0 0 38 38">
  <g id="그룹_5101" data-name="그룹 5101" transform="translate(-442 -313)">
    <circle id="타원_235" data-name="타원 235" cx="19" cy="19" r="19" transform="translate(442 313)" fill="#8f8f8f"/>
    <path id="패스_2406" data-name="패스 2406" d="M8338.483,320.107c-1.864.875-4.73,5.866-4.73,5.866s2.319,9,8,9.6c0,0-3.729-3.729.728-5.093a10.476,10.476,0,0,1,1.092,2c.272.819.683-2.5,3.5-4.456s5.32-.682,3.547-3.547-4.457,1.91-5.457,1.046-2.184-2.183.317-2.592,2.729-2.91-1.136-1.773c-2.639.546-2.046,2.137-3.138,1.319S8340.348,319.231,8338.483,320.107Z" transform="translate(-7887.625 -1.107)" fill="#fff"/>
    <path id="패스_2407" data-name="패스 2407" d="M8353.883,316.729a30.706,30.706,0,0,0-2.771,3.211c-.7,1.1,1.144.66,1.671,1.715s-.572,2.727.659,3.431,4-1.231,4.53-.528-2.023,2.947-1.671,4.574a9.462,9.462,0,0,0,2.99,5.058c1.539,1.187,1.145,1.847,1.76,2.463a8.046,8.046,0,0,0,2.683,1.1s2.331-8.136-1.5-13.5A24.444,24.444,0,0,0,8353.883,316.729Z" transform="translate(-7887 -0.842)" fill="#fff"/>
    <path id="패스_2408" data-name="패스 2408" d="M8346,333.66c-1.545.091-2.272-.5-2.817,1.181s.135,3.408,0,4.453,2.046,1.227,2.408,2.635-.136,2.862.591,4.089a5.08,5.08,0,0,0,2,1.817,8.778,8.778,0,0,1,1.136-4.953c1.408-2.272,3.226-3.5,3.044-5.225s-2.545-3.635-3.953-4.362A2.026,2.026,0,0,0,8346,333.66Z" transform="translate(-7888 0.953)" fill="#fff"/>
    <path id="패스_2409" data-name="패스 2409" d="M8357.606,335.6c-1.1.3-1.983,1.013-1.351,1.52s3,2.449,2.913.718A2.491,2.491,0,0,0,8357.606,335.6Z" transform="translate(-7887)" fill="#fff"/>
  </g>
</svg>
