<svg xmlns="http://www.w3.org/2000/svg" width="34.926" height="30.736" viewBox="0 0 34.926 30.736">
  <path id="random" d="M33.46,53.669a1.59,1.59,0,0,1,0,2.249l-5.3,5.3a1.591,1.591,0,0,1-2.715-1.125V57.444h-3.9a.8.8,0,0,1-.581-.253l-4.675-5.009L19.827,48.4l3.5,3.747h2.12V49.494a1.591,1.591,0,0,1,2.715-1.125ZM.8,41.542H6.361l3.5,3.747L13.392,41.5,8.717,36.493a.8.8,0,0,0-.581-.253H.8a.8.8,0,0,0-.8.8v3.711A.8.8,0,0,0,.8,41.542Zm24.649,0v2.649a1.591,1.591,0,0,0,2.715,1.125l5.3-5.3a1.59,1.59,0,0,0,0-2.249l-5.3-5.3a1.591,1.591,0,0,0-2.715,1.124v2.649h-3.9a.8.8,0,0,0-.581.253L6.361,52.143H.8a.8.8,0,0,0-.8.8v3.711a.8.8,0,0,0,.8.8H8.136a.8.8,0,0,0,.581-.253l14.607-15.65Z" transform="translate(0.5 -31.475)" fill="none" stroke="#a49fba" stroke-width="1" opacity="0.7"/>
</svg>
