<svg xmlns="http://www.w3.org/2000/svg" width="32" height="32" viewBox="0 0 32 32"><path d="M24.937,9.75,27,5.813,24.375,3.187,20.438,5.25a6.717,6.717,0,0,0-2.062-.75L16.875,0h-3.75l-1.5,4.312a7.836,7.836,0,0,0-1.875.75L5.813,3,3,5.813,5.063,9.75a7.836,7.836,0,0,0-.75,1.875L0,13.125v3.75l4.312,1.5c.187.75.563,1.312.75,2.063L3,24.375,5.625,27l3.937-2.062a6.717,6.717,0,0,0,2.063.75L13.125,30h3.75l1.5-4.313c.75-.187,1.312-.562,2.063-.75L24.375,27,27,24.375l-2.062-3.937a6.717,6.717,0,0,0,.75-2.062L30,16.875v-3.75l-4.313-1.5A7.836,7.836,0,0,0,24.937,9.75ZM15,20.625A5.525,5.525,0,0,1,9.375,15,5.525,5.525,0,0,1,15,9.375,5.525,5.525,0,0,1,20.625,15,5.525,5.525,0,0,1,15,20.625Z" transform="translate(1 1)" fill="none" stroke="#f1ad39" stroke-width="2"/></svg>