<svg xmlns="http://www.w3.org/2000/svg" width="40" height="40" viewBox="0 0 40 40"><g transform="translate(-333 -493)"><rect width="40" height="40" rx="20" transform="translate(333 493)" fill="none"/><g transform="translate(339 497)"><path d="M835.554-1394.088a4.6,4.6,0,0,0-3.078,1.2l-11.2-6.458a5.047,5.047,0,0,0,.141-1.089,5.049,5.049,0,0,0-.141-1.089l11.071-6.4a4.714,4.714,0,0,0,3.2,1.26,4.683,4.683,0,0,0,4.711-4.669,4.683,4.683,0,0,0-4.711-4.669,4.683,4.683,0,0,0-4.711,4.669,5.06,5.06,0,0,0,.141,1.089l-11.07,6.4a4.714,4.714,0,0,0-3.2-1.261,4.683,4.683,0,0,0-4.711,4.669,4.683,4.683,0,0,0,4.711,4.669,4.715,4.715,0,0,0,3.2-1.26l11.18,6.474a4.349,4.349,0,0,0-.126,1.011,4.57,4.57,0,0,0,4.585,4.544,4.57,4.57,0,0,0,4.585-4.544A4.57,4.57,0,0,0,835.554-1394.088Z" transform="translate(-812 1416)" fill="#97592e" opacity="0.7"/></g></g></svg>