<svg xmlns="http://www.w3.org/2000/svg" width="31.958" height="31.958" viewBox="0 0 31.958 31.958"><path d="M21.686,17.794C20.751,12.04,18.547,8,15.982,8s-4.769,4.04-5.7,9.794ZM9.8,23.979a40.377,40.377,0,0,0,.213,4.124H21.95a40.375,40.375,0,0,0,.213-4.124,40.375,40.375,0,0,0-.213-4.124H10.008A40.377,40.377,0,0,0,9.8,23.979Zm20.925-6.185A16.015,16.015,0,0,0,20.538,8.67a21.744,21.744,0,0,1,3.222,9.124ZM11.42,8.67A16,16,0,0,0,1.244,17.794H8.2A21.655,21.655,0,0,1,11.42,8.67ZM31.41,19.855H24.018c.135,1.353.213,2.738.213,4.124s-.077,2.771-.213,4.124H31.4a15.838,15.838,0,0,0,.554-4.124,16.115,16.115,0,0,0-.548-4.124ZM7.733,23.979c0-1.385.077-2.771.213-4.124H.554a15.618,15.618,0,0,0,0,8.247H7.94C7.811,26.75,7.733,25.364,7.733,23.979Zm2.546,6.185c.934,5.754,3.138,9.794,5.7,9.794s4.769-4.04,5.7-9.794Zm10.266,9.123a16.03,16.03,0,0,0,10.182-9.123h-6.96A21.743,21.743,0,0,1,20.545,39.288Zm-19.3-9.123a16.015,16.015,0,0,0,10.182,9.123A21.744,21.744,0,0,1,8.2,30.164H1.244Z" transform="translate(0 -8)" fill="#a49fba" opacity="0.8"/></svg>