<svg xmlns="http://www.w3.org/2000/svg" width="48" height="48" viewBox="0 0 48 48"><g transform="translate(-656 -66)"><path d="M0,0H48V48H0Z" transform="translate(656 66)" fill="none"/><path d="M-523.516,640.52v2.2l1.995,1.4v26.825s-.07,1.334.423,1.785a5.94,5.94,0,0,0,1.611.836h25.336a1.3,1.3,0,0,0,1.324-.836c.416-.962.529-1.252.529-1.252V644.121l1.892-1.88V640.52Z" transform="translate(1187.376 -564.001)" fill="none" stroke="#ff97af" stroke-width="2"/><line y1="6" x2="33" transform="translate(663.5 67.5)" fill="none" stroke="#ff97af" stroke-width="2"/><line y1="1.5" x2="6.739" transform="translate(675.761 67.5)" fill="none" stroke="#ff97af" stroke-width="1"/><line y2="21" transform="translate(687.5 83)" fill="none" stroke="#ff97af" stroke-linecap="round" stroke-width="2"/><line y2="21" transform="translate(680.5 83)" fill="none" stroke="#ff97af" stroke-linecap="round" stroke-width="2"/><line y2="21" transform="translate(673.5 83)" fill="none" stroke="#ff97af" stroke-linecap="round" stroke-width="2"/></g></svg>