<svg xmlns="http://www.w3.org/2000/svg" width="48" height="48" viewBox="0 0 48 48"><g transform="translate(-243 -443)"><path d="M0,0H48V48H0Z" transform="translate(243 443)" fill="none"/><g transform="translate(0 0.5)"><path d="M-523.516,640.52v2.2l1.995,1.4v26.825s-.07,1.334.423,1.785a5.94,5.94,0,0,0,1.611.836h25.336a1.3,1.3,0,0,0,1.324-.836c.416-.962.529-1.252.529-1.252V644.121l1.892-1.88V640.52Z" transform="translate(774.376 -187.501)" fill="none" stroke="#4e9897" stroke-width="2"/><line x2="35" transform="translate(250 449)" fill="none" stroke="#4e9897" stroke-width="2"/><line x2="7.243" transform="translate(263.761 446.5)" fill="none" stroke="#4e9897" stroke-width="1"/><line y2="21" transform="translate(274.5 459.5)" fill="none" stroke="#4e9897" stroke-linecap="round" stroke-width="2"/><line y2="21" transform="translate(267.5 459.5)" fill="none" stroke="#4e9897" stroke-linecap="round" stroke-width="2"/><line y2="21" transform="translate(260.5 459.5)" fill="none" stroke="#4e9897" stroke-linecap="round" stroke-width="2"/></g></g></svg>