<svg xmlns="http://www.w3.org/2000/svg" width="48" height="48" viewBox="0 0 48 48"><g transform="translate(-404 -164)"><rect width="48" height="48" transform="translate(404 164)" fill="none"/><path d="M1907.274,445.067c.135-1.786,18.413-22.831,18.413-22.831s2.655-1.635,4.506-1.073c0,0,.712.581.733.607.584,1.775-.733,4.351-.733,4.351s-13.066,23.654-14.745,24.565a5.586,5.586,0,0,1-6.161-.707C1907.175,448.335,1907.139,446.853,1907.274,445.067Z" transform="translate(-1485.118 -255.374)" fill="none" stroke="#a8a8a8" stroke-linecap="round" stroke-linejoin="bevel" stroke-width="2"/><path d="M1914.328,441.667c-2.4-1.251-3.479-1.975-5.407-1.525a6.348,6.348,0,0,0-4.483,5.414c-.521,3.128-1.076,3.969-2.7,5.232a41.6,41.6,0,0,1-4.691,2.887s3.885.432,7.391.873,6.918,0,9.175-1.651c1.809-1.47,2.777-3.911,2.917-6.825A4.978,4.978,0,0,0,1914.328,441.667Z" transform="translate(-1491.795 -244.403)" fill="none" stroke="#a8a8a8" stroke-linecap="round" stroke-linejoin="round" stroke-width="2"/><path d="M2031.213,1489.721a6.718,6.718,0,0,0,2.666,3.719,15.036,15.036,0,0,0,5.694,1.608" transform="translate(-1606.505 -1303.615)" fill="none" stroke="#a8a8a8" stroke-width="2"/></g></svg>