<svg xmlns="http://www.w3.org/2000/svg" width="48" height="48" viewBox="0 0 48 48"><g transform="translate(-465 -164)"><line x2="15" transform="translate(474.5 190.196)" fill="none" stroke="#4e9897" stroke-linecap="round" stroke-width="3"/><path d="M324.379-937.7l7.152-15.427,8.541-18.424,14.656,33.85" transform="translate(142.621 1143.554)" fill="none" stroke="#4e9897" stroke-linecap="round" stroke-linejoin="round" stroke-width="3"/><path d="M345.31-959.523a5.115,5.115,0,0,1,4.68-2.8c3.561-.1,5.577.066,7.071,2.8s0,6.1,0,8.473,0,5.25,1.148,6.195" transform="translate(153.12 1151.267)" fill="none" stroke="#4e9897" stroke-linecap="round" stroke-width="2"/><path d="M357.569-957.158s-2.417-1.824-7.1-1.01-5.111,3.46-5.189,4.375.071,3.317,1.221,4.426,3,1.475,6.257.61a15.2,15.2,0,0,0,4.121-1.475" transform="translate(153.097 1153.167)" fill="none" stroke="#4e9897" stroke-width="2"/><rect width="48" height="48" transform="translate(465 164)" fill="none"/></g></svg>