<svg xmlns="http://www.w3.org/2000/svg" width="38" height="34" viewBox="0 0 38 34"><g transform="translate(2 2)" fill="none" stroke-linecap="round" stroke-linejoin="round" opacity="0.8"><path d="M17,0,34,30H0Z" stroke="none"/><path d="M 17 -1.9073486328125e-06 L 0 30 L 34 30 L 17 -1.9073486328125e-06 M 17 -2.000001907348633 C 17.72028923034668 -2.000001907348633 18.38492965698242 -1.612691879272461 18.74003982543945 -0.9860305786132813 L 35.74003982543945 29.01396942138672 C 36.09090042114258 29.63312911987305 36.08631896972656 30.39208984375 35.72800827026367 31.00695991516113 C 35.36970901489258 31.62183952331543 34.7116584777832 32 34 32 L 0 32 C -0.7116584777832031 32 -1.369709014892578 31.62183952331543 -1.728008270263672 31.00695991516113 C -2.086318969726563 30.39208984375 -2.090900421142578 29.63312911987305 -1.740039825439453 29.01396942138672 L 15.25996017456055 -0.9860305786132813 C 15.61507034301758 -1.612691879272461 16.27971076965332 -2.000001907348633 17 -2.000001907348633 Z" stroke="none" fill="#707070"/></g></svg>